<svg width="713" height="298" viewBox="0 0 713 298" fill="none" xmlns="http://www.w3.org/2000/svg">
<path d="M217.771 125.786C217.771 121.706 214.452 118.386 210.372 118.386C206.292 118.386 202.973 121.706 202.973 125.786C202.973 129.862 206.292 133.182 210.372 133.182C214.452 133.182 217.771 129.862 217.771 125.786" fill="#080D35"/>
<path d="M237.301 163.305C237.301 154.063 244.817 146.545 254.059 146.545C263.297 146.545 270.816 154.063 270.816 163.305C270.816 172.547 263.297 180.066 254.059 180.066C253.568 180.066 253.083 180.041 252.602 179.999C249.985 179.774 247.458 178.932 245.228 177.542C240.473 174.58 237.301 169.308 237.301 163.305ZM200.407 180.096L252.522 108.703H264.658L261.873 112.518L225.751 162.002L212.542 180.096H200.407ZM193.613 125.785C193.613 116.542 201.133 109.025 210.373 109.025C219.613 109.025 227.133 116.542 227.133 125.785C227.133 135.025 219.613 142.543 210.372 142.543C201.132 142.543 193.613 135.025 193.613 125.785ZM179.046 264.962H120.89V84.94L99.2237 84.7361L99.2748 76.3571L99.4031 55.5822L116.669 40.2033L127.466 30.5865H179.047L179.046 264.962ZM297.905 144.305C297.88 143.495 297.851 142.688 297.812 141.882C297.755 140.687 297.684 139.493 297.599 138.3C297.568 137.865 297.537 137.428 297.503 136.993C297.439 136.199 297.367 135.406 297.292 134.615C297.256 134.238 297.223 133.86 297.184 133.485C297.069 132.368 296.941 131.253 296.801 130.139C296.796 130.098 296.793 130.057 296.787 130.016C296.642 128.87 296.479 127.728 296.308 126.59C296.251 126.213 296.188 125.839 296.128 125.463C296.007 124.695 295.88 123.928 295.747 123.163C295.672 122.729 295.592 122.297 295.513 121.865C295.381 121.153 295.245 120.441 295.103 119.73C294.873 118.558 294.625 117.389 294.36 116.224C294.272 115.834 294.188 115.443 294.097 115.055C293.867 114.064 293.626 113.079 293.375 112.097C293.333 111.931 293.292 111.765 293.25 111.599C292.982 110.563 292.702 109.53 292.411 108.5C292.3 108.104 292.181 107.71 292.067 107.315C291.865 106.622 291.661 105.93 291.45 105.241C291.313 104.795 291.172 104.35 291.031 103.906C290.685 102.814 290.326 101.725 289.955 100.641C289.734 99.9933 289.504 99.3494 289.274 98.7059C289.123 98.2855 288.975 97.8641 288.821 97.4457C288.523 96.6419 288.219 95.8408 287.908 95.0424C287.424 93.7935 286.922 92.5513 286.404 91.3161C286.221 90.8812 286.032 90.4507 285.845 90.0183C285.592 89.4283 285.335 88.84 285.074 88.2534C284.864 87.7843 284.65 87.3173 284.435 86.8508C284.184 86.3052 283.93 85.7611 283.673 85.2187C283.448 84.7436 283.222 84.2691 282.991 83.797C282.73 83.2618 282.464 82.7292 282.196 82.1975C281.963 81.7325 281.731 81.2674 281.494 80.8049C281.192 80.2216 280.883 79.6429 280.574 79.0631C280.189 78.3383 279.796 77.6168 279.398 76.8988C279.081 76.325 278.763 75.7498 278.438 75.1805C278.159 74.6919 277.872 74.2089 277.588 73.7238C277.318 73.2638 277.048 72.8028 276.773 72.3457C276.471 71.8444 276.166 71.345 275.858 70.8474C275.277 69.9062 274.686 68.9714 274.085 68.0432C273.82 67.6338 273.551 67.2274 273.281 66.8215C272.942 66.3094 272.605 65.7973 272.259 65.2902C272.017 64.9344 271.769 64.5831 271.524 64.2303C270.776 63.1494 270.013 62.0786 269.236 61.0182C269.043 60.7566 268.855 60.4906 268.661 60.23C268.258 59.6878 267.847 59.1516 267.438 58.6154C267.19 58.2912 266.943 57.967 266.693 57.6443C266.033 56.7968 265.364 55.956 264.686 55.1222C264.256 54.5919 263.822 54.0645 263.384 53.5402C263.149 53.2586 262.912 52.981 262.676 52.7014C262.207 52.1496 261.739 51.5979 261.263 51.0527C261.141 50.9134 261.017 50.7771 260.895 50.6383C259.162 48.6693 257.378 46.746 255.544 44.8706C255.356 44.6766 255.167 44.4812 254.977 44.2883C253.687 42.9865 252.376 41.7068 251.042 40.4498C250.863 40.2814 250.682 40.1151 250.502 39.9472C247.789 37.4208 244.983 34.9956 242.091 32.6766C241.979 32.588 241.869 32.4978 241.757 32.4086C241.09 31.8779 240.419 31.3531 239.743 30.8341C239.588 30.7143 239.432 30.5941 239.275 30.4753C238.593 29.955 237.907 29.4402 237.217 28.9309L236.883 28.6878C235.125 27.4035 233.34 26.1576 231.528 24.9511C230.116 24.0073 228.687 23.0878 227.243 22.193C227.219 22.1775 227.195 22.1629 227.172 22.1479C226.38 21.6588 225.583 21.1788 224.782 20.7047C224.683 20.646 224.585 20.5875 224.486 20.5293C223.686 20.0582 222.881 19.5941 222.073 19.1373L221.93 19.0581C219.241 17.5498 216.506 16.126 213.729 14.7887C211.992 13.9445 210.239 13.1345 208.471 12.3593C207.576 11.9694 206.677 11.5876 205.773 11.2148C205.768 11.2128 205.763 11.2098 205.758 11.2087C202.65 9.93053 199.499 8.75876 196.311 7.69549C194.717 7.15853 193.114 6.6485 191.502 6.16561L191.364 6.12402C190.467 5.85938 189.568 5.60281 188.666 5.35432C188.604 5.33779 188.544 5.31924 188.481 5.30171V5.30471C175.902 1.85409 162.661 0 148.985 0C127.202 0 106.518 4.68935 87.8663 13.0929C87.8607 13.0903 87.855 13.0879 87.8492 13.0859C87.5826 13.2057 87.3186 13.3304 87.0535 13.4522C86.3618 13.7685 85.6726 14.0904 84.9861 14.4178C83.7715 14.9949 82.5647 15.5884 81.3663 16.1983C81.0851 16.3421 80.8065 16.4909 80.5259 16.6357C79.8714 16.9751 79.2193 17.3192 78.5697 17.668C78.2285 17.8519 77.8868 18.0348 77.5475 18.2207C76.7125 18.6772 75.8819 19.1416 75.0557 19.6138C74.7675 19.7792 74.4814 19.9495 74.1943 20.1164C73.5715 20.4782 72.9516 20.8445 72.3343 21.2158C72.0021 21.4158 71.6704 21.6147 71.3397 21.8167C70.5339 22.3098 69.7327 22.8089 68.9375 23.3165C68.6403 23.5064 68.3457 23.7003 68.0506 23.8918C67.4618 24.2736 66.8765 24.6589 66.2943 25.0478C65.9701 25.2648 65.6464 25.4808 65.3242 25.6992C64.5496 26.2258 63.7799 26.7595 63.0152 27.3003C62.7131 27.5138 62.4139 27.7317 62.1133 27.9477C61.5586 28.3471 61.0059 28.75 60.4572 29.1564C60.1415 29.3899 59.8249 29.6234 59.5107 29.8589C58.7691 30.4172 58.0325 30.9814 57.3019 31.5527C56.9963 31.7922 56.6931 32.0347 56.389 32.2763C55.8668 32.6922 55.3472 33.1096 54.8306 33.532C54.5229 33.7831 54.2148 34.0321 53.9101 34.2862C53.2019 34.8731 52.4996 35.4669 51.8031 36.0676C51.4954 36.3327 51.1908 36.6008 50.8861 36.8684C50.398 37.296 49.9126 37.7266 49.43 38.1603C49.1293 38.4309 48.8267 38.6999 48.528 38.973C47.8565 39.5869 47.1905 40.2068 46.5302 40.8327C46.2231 41.1248 45.9184 41.419 45.6132 41.7131C45.1588 42.1516 44.7073 42.5925 44.2583 43.036C43.9647 43.3267 43.6691 43.6163 43.3779 43.909C42.7437 44.5466 42.1154 45.1901 41.4929 45.8392C41.1862 46.1589 40.8826 46.4816 40.5784 46.8038C40.159 47.2488 39.7431 47.6963 39.3287 48.1468C39.0416 48.459 38.7525 48.7697 38.4679 49.0839C37.1658 50.5239 35.8928 51.9899 34.6496 53.4811C34.3279 53.8659 34.0052 54.2518 33.6876 54.6391C32.1068 56.569 30.575 58.5385 29.0937 60.5457C28.06 61.9418 27.0527 63.3571 26.0722 64.7911C25.6632 65.3864 25.2587 65.9847 24.8585 66.586C24.5252 67.0857 24.195 67.5875 23.8679 68.0913C23.5838 68.5303 23.3017 68.9713 23.0221 69.4133C22.3186 70.5277 21.6293 71.6509 20.9541 72.7827C20.68 73.2422 20.406 73.7017 20.1374 74.1643C19.6166 75.0599 19.1054 75.9611 18.6041 76.8677C18.1857 77.6229 17.7738 78.3816 17.3684 79.1438C17.1419 79.5702 16.9154 79.9956 16.6935 80.4241C16.4326 80.9262 16.1747 81.4298 15.9198 81.9349C15.7123 82.3458 15.5089 82.7587 15.3055 83.1706C14.8979 83.997 14.4982 84.8272 14.1064 85.6611C13.918 86.06 13.7306 86.4594 13.5462 86.8603C13.3011 87.3935 13.0586 87.9276 12.8206 88.4638C12.6472 88.8532 12.4779 89.2451 12.3075 89.6359C11.9182 90.5315 11.5377 91.4308 11.1661 92.3339C11.0107 92.7107 10.8554 93.0865 10.7036 93.4649C10.4781 94.0276 10.2546 94.5909 10.0351 95.1561C9.89481 95.5179 9.75952 95.8817 9.62172 96.2445C9.25543 97.2116 8.89817 98.1838 8.55192 99.1609C8.21509 100.107 7.8882 101.056 7.57131 102.009C7.46408 102.331 7.36085 102.655 7.25563 102.979C6.91669 104.024 6.5893 105.072 6.27351 106.124C6.17229 106.464 6.07058 106.802 5.97086 107.143C5.78909 107.762 5.61137 108.383 5.43771 109.006C5.36255 109.278 5.29039 109.551 5.21674 109.823C4.91009 110.951 4.61694 112.082 4.33734 113.216C4.09592 114.189 3.86491 115.164 3.64435 116.141C3.60126 116.333 3.56117 116.525 3.51908 116.717C3.17551 118.27 2.85728 119.829 2.56452 121.393C2.43925 122.062 2.31549 122.731 2.19874 123.404C2.18972 123.459 2.1812 123.515 2.17168 123.569C1.87827 125.279 1.61482 126.993 1.38148 128.711C1.28808 129.391 1.19922 130.072 1.1149 130.753L1.11991 130.762C0.376383 136.814 0.00238598 142.907 0 149.005C0 204.709 30.5759 253.269 75.8534 278.833L75.8549 278.838C76.12 278.988 76.3885 279.133 76.6551 279.281C77.555 279.782 78.461 280.273 79.3715 280.755C79.7292 280.946 80.085 281.135 80.4438 281.322C80.9884 281.604 81.5361 281.883 82.0848 282.158C82.426 282.331 82.7688 282.5 83.112 282.67C84.2522 283.233 85.3996 283.782 86.5539 284.316C86.7043 284.384 86.8531 284.456 87.0039 284.525C87.8896 284.931 88.7795 285.326 89.6736 285.713C91.7493 286.615 93.8453 287.469 95.9602 288.275C96.1145 288.333 96.2694 288.393 96.4252 288.451C98.7204 289.317 101.037 290.126 103.373 290.876L103.384 290.88C106.608 291.915 109.866 292.839 113.154 293.651L113.159 293.652C124.881 296.545 136.911 298.005 148.984 298C189.616 298 226.441 281.731 253.318 255.361L253.326 255.352C254.31 254.386 255.281 253.406 256.239 252.413C257.159 251.46 258.065 250.495 258.959 249.518L259.001 249.471C260.814 247.487 262.574 245.455 264.279 243.375L264.319 243.327C265.129 242.336 265.927 241.335 266.711 240.323L266.946 240.022C267.7 239.046 268.442 238.061 269.171 237.067C269.265 236.939 269.359 236.809 269.453 236.682C270.178 235.688 270.891 234.685 271.592 233.674C271.665 233.567 271.738 233.458 271.811 233.353C272.536 232.302 273.246 231.243 273.943 230.174L273.944 230.173C274.599 229.168 275.242 228.153 275.872 227.132L275.898 227.091C276.519 226.084 277.127 225.07 277.724 224.048C277.742 224.017 277.76 223.987 277.779 223.956C278.365 222.951 278.939 221.939 279.501 220.92C279.528 220.87 279.556 220.822 279.584 220.772C280.135 219.771 280.675 218.762 281.204 217.747C281.239 217.678 281.276 217.61 281.311 217.541C281.828 216.546 282.332 215.545 282.825 214.538C282.871 214.446 282.917 214.356 282.962 214.263C283.443 213.277 283.912 212.285 284.372 211.288C284.425 211.172 284.48 211.058 284.534 210.941C284.981 209.965 285.415 208.981 285.841 207.994C285.901 207.854 285.964 207.717 286.024 207.577C286.437 206.61 286.839 205.639 287.231 204.664C287.297 204.5 287.366 204.335 287.432 204.17C287.812 203.214 288.183 202.254 288.542 201.29C288.613 201.102 288.687 200.914 288.757 200.725C289.106 199.783 289.441 198.835 289.772 197.883C289.847 197.668 289.924 197.456 289.998 197.24C290.315 196.31 290.622 195.376 290.92 194.44C290.997 194.199 291.078 193.96 291.155 193.718C291.44 192.807 291.714 191.89 291.982 190.97C292.063 190.699 292.146 190.43 292.224 190.158C292.48 189.265 292.722 188.366 292.963 187.466C293.043 187.165 293.128 186.866 293.207 186.564C293.435 185.686 293.648 184.802 293.861 183.919C293.94 183.591 294.024 183.266 294.1 182.938C294.301 182.078 294.486 181.21 294.672 180.344C294.749 179.988 294.831 179.635 294.904 179.278C295.079 178.434 295.238 177.584 295.398 176.734C295.47 176.352 295.549 175.972 295.618 175.589C295.767 174.76 295.901 173.926 296.037 173.091C296.103 172.683 296.177 172.278 296.239 171.87C296.365 171.053 296.476 170.231 296.588 169.41C296.647 168.981 296.713 168.553 296.768 168.122C296.871 167.317 296.959 166.506 297.049 165.696C297.099 165.247 297.157 164.799 297.204 164.348C297.286 163.544 297.352 162.734 297.422 161.927C297.461 161.467 297.508 161.01 297.544 160.548C297.607 159.723 297.653 158.894 297.703 158.066C297.73 157.618 297.765 157.173 297.788 156.725C297.834 155.83 297.862 154.932 297.892 154.033C297.905 153.647 297.926 153.263 297.936 152.876C297.969 151.589 297.985 150.298 297.985 149.005C297.985 147.814 297.968 146.626 297.94 145.442C297.931 145.062 297.916 144.683 297.905 144.304" fill="#080D35"/>
<path d="M261.459 163.305C261.459 159.224 258.142 155.906 254.061 155.906C249.981 155.906 246.663 159.224 246.663 163.305C246.663 167.383 249.981 170.701 254.061 170.701C258.142 170.701 261.459 167.383 261.459 163.305ZM343.191 119.383H372.222V105.261H343.191V94.824H375.295V79.9121H326.176V141.311H343.191V119.383V119.383ZM398.801 110.434C398.801 101.576 405.025 94.0333 414.324 94.0333C423.707 94.0333 430.108 101.751 430.108 110.612V110.788C430.108 119.644 423.881 127.188 414.498 127.188C405.202 127.188 398.801 119.47 398.801 110.612V110.434ZM414.324 142.538C433.267 142.538 447.478 128.241 447.478 110.612V110.434C447.478 92.8025 433.438 78.6833 414.498 78.6833C395.554 78.6833 381.345 92.9829 381.345 110.612V110.788C381.345 128.416 395.377 142.538 414.324 142.538V142.538ZM473.786 94.6461H484.926C490.627 94.6461 494.136 97.1025 494.136 101.927V102.103C494.136 106.577 490.804 109.384 485.016 109.384H473.786V94.6461ZM473.786 122.716H481.24L493.606 141.311H513.256L498.61 119.909C506.24 116.663 511.24 110.434 511.24 101.051V100.873C511.24 94.824 509.396 90.0855 505.801 86.5773C501.677 82.3675 495.19 79.9121 485.803 79.9121H456.771V141.311H473.786V122.716V122.716ZM551.672 141.311H568.687V94.824H587.105V79.9121H533.25V94.824H551.672V141.311ZM633.853 102.889H612.013V79.9121H594.998V141.311H612.013V117.978H633.853V141.311H650.868V79.9121H633.853V102.889V102.889ZM679.024 126.837V117.1H708.494V103.681H679.024V94.3825H711.561V79.9121H662.179V141.311H712.002V126.837H679.024ZM363.05 177.691C363.05 182.86 359.104 186.241 352.621 186.241H343.979V168.858H352.528C359.104 168.858 363.05 171.866 363.05 177.507V177.691ZM353.937 153.543H325.749V219.317H343.979V200.523H352.996C369.347 200.523 381.281 192.351 381.281 176.844V176.657C381.281 162.092 370.566 153.543 353.937 153.543V153.543ZM439.06 203.342H407.21V153.543H388.978V219.317H439.06V203.342ZM470.814 193.381L478.24 174.685L485.568 193.381H470.814ZM469.595 153.074L441.595 219.317H460.764L465.461 207.573H490.827L495.622 219.317H515.163L487.168 153.074H469.595V153.074ZM565.622 188.311L538.558 153.543H521.553V219.317H539.592V183.237L567.684 219.317H583.657V153.543H565.622V188.311V188.311ZM613.348 193.381H644.911V179.005H613.348V169.048H648.203V153.543H595.306V219.317H648.676V203.812H613.348V193.381H613.348ZM654.31 169.514H674.04V219.317H692.273V169.514H712.002V153.543H654.31V169.514ZM702.415 213.293H701.393V211.926H702.415C702.976 211.926 703.283 212.175 703.283 212.609C703.283 213.013 702.976 213.293 702.415 213.293ZM704.9 212.485C704.9 211.151 703.904 210.561 702.508 210.561H699.776V216.272H701.393V214.566H702.074L703.223 216.272H705.08L703.718 214.286C704.433 214.006 704.9 213.385 704.9 212.485Z" fill="#080D35"/>
<path d="M706.914 213.511C706.914 216.148 704.83 218.351 702.131 218.351C699.405 218.351 697.354 216.179 697.354 213.541V213.511C697.354 210.872 699.431 208.67 702.131 208.67C704.863 208.67 706.914 210.841 706.914 213.479V213.511ZM702.131 207.735C698.93 207.735 696.392 210.375 696.392 213.511V213.543C696.392 216.679 698.897 219.286 702.131 219.286C705.331 219.286 707.877 216.645 707.877 213.511V213.478C707.877 210.343 705.364 207.735 702.131 207.735V207.735ZM429.062 258.967H451.344V254.553H429.061V258.967H429.062ZM469.621 253.605L465.072 246.267H459.489V265.221H464.664V254.39L469.513 261.755H469.621L474.498 254.336V265.221H479.755V246.267H474.171L469.621 253.605V253.605ZM488.364 257.748H497.516V253.605H488.364V250.735H498.47V246.267H483.134V265.221H498.606V260.753H488.364V257.748V257.748ZM511.436 253.605L506.886 246.267H501.303V265.221H506.478V254.39L511.327 261.755H511.436L516.312 254.336V265.221H521.569V246.267H515.985L511.436 253.605V253.605ZM536.716 259.264C536.716 260.375 535.789 260.997 534.182 260.997H530.096V257.505H534.127C535.898 257.505 536.716 258.181 536.716 259.21V259.264ZM530.096 250.492H533.528C535.108 250.492 535.925 251.087 535.925 252.115V252.17C535.925 253.28 535.026 253.821 533.419 253.821H530.096V250.492ZM538.213 255.311C539.902 254.58 541.155 253.28 541.155 251.086V251.033C541.155 249.733 540.692 248.731 539.929 247.972C538.813 246.863 537.123 246.267 534.726 246.267H524.948V265.221H534.78C539.33 265.221 541.999 263.244 541.999 259.995V259.941C541.999 257.369 540.528 256.069 538.213 255.311V255.311ZM549.654 257.748H558.807V253.605H549.654V250.735H559.76V246.267H544.425V265.221H559.897V260.753H549.654V257.748V257.748ZM574.197 253.118C574.197 254.499 573.163 255.365 571.365 255.365H567.878V250.816H571.337C573.109 250.816 574.197 251.574 574.197 253.063V253.118ZM579.51 252.793V252.738C579.51 250.87 578.938 249.408 577.821 248.325C576.54 247.025 574.525 246.267 571.61 246.267H562.594V265.221H567.878V259.481H570.194L574.034 265.221H580.136L575.587 258.614C577.956 257.612 579.51 255.69 579.51 252.793ZM586.402 258.967H608.685V254.553H586.402V258.967Z" fill="#080D35"/>
</svg>
