<svg width="466" height="299" viewBox="0 0 466 299" fill="none" xmlns="http://www.w3.org/2000/svg">
<path d="M62.6076 51.9659C54.7119 64.3779 47.2812 70.0979 33.2568 70.0979C14.1174 70.0979 0 56.0035 0 35.0302C0 14.057 14.6754 0 33.7218 0C47.3742 0 57.9018 7.41168 62.2356 17.6086L52.2939 25.0203C48.36 16.459 42.4545 11.7391 33.3498 11.7391C21.9201 11.7391 12.4434 20.6835 12.4434 35.0302C12.4434 48.8816 21.7434 58.3121 33.3498 58.3121C41.85 58.3121 48.4902 53.695 53.01 44.8626L62.6076 51.9659ZM99.1194 41.3764H88.7127V68.7053H76.4553V1.34588H104.225C118.528 1.34588 127.354 8.75756 127.354 20.4032C127.354 30.7963 121.318 36.9556 112.474 40.2268L128.173 68.7053H114.167L99.1194 41.3764ZM88.7127 30.2169H104.225C111.749 30.2169 115.087 26.7493 115.087 21.3658C115.087 15.9823 111.749 12.5055 104.225 12.5055H88.7127V30.2169ZM141.1 1.34588H186V12.7017H153.366V28.198H183.368V39.5539H153.366V57.312H186.242V68.7053H141.1V1.34588ZM220.987 1.34588H232.686L258.977 68.7053H245.883L239.373 51.0967H214.263L207.753 68.7053H194.695L220.987 1.34588ZM218.476 39.7408H235.216L229.273 23.5716C229.273 23.5716 228.064 20.3003 226.855 16.2627C225.646 20.3003 224.437 23.5716 224.437 23.5716L218.476 39.7408ZM256.187 1.34588H308.211V13.0849H288.3V68.7053H276.07V13.0849H256.187V1.34588ZM321.12 1.34588H333.377V68.7053H321.12V1.34588ZM344.993 1.34588H358.273L372.949 44.3392C372.949 44.3392 374.344 49.3489 375.367 52.9099C376.39 49.3489 377.785 44.3392 377.785 44.3392L392.46 1.34588H405.74L381.56 68.7053H369.145L344.993 1.34588ZM415.031 1.34588H459.894V12.7017H427.288V28.198H457.29V39.5539H427.288V57.312H460.173V68.7053H415.031V1.34588ZM1.3113 115.989H13.4013V170.721H45.4491V182.254H1.3113V115.989ZM55.1304 115.989H67.2204V182.254H55.1304V115.989ZM75.8787 115.989H88.8987L103.342 158.318C103.342 158.318 104.709 163.244 105.713 166.73C106.717 163.225 108.094 158.318 108.094 158.318L122.574 115.989H135.65L111.888 182.254H99.6402L75.8787 115.989ZM142.039 115.989H186.186V127.204H154.101V142.448H183.628V153.664H154.101V171.179H186.456V182.395H142.039V115.989ZM220.54 142.887C234.49 145.916 241.474 152.066 241.474 163.244C241.474 174.039 232.519 183.6 217.62 183.6C201.717 183.6 193.124 174.516 190.752 162.393L201.354 156.786C203.084 166.637 207.864 172.6 217.527 172.6C224.744 172.6 229.412 169.001 229.412 163.702C229.412 157.543 223.925 154.888 213.602 152.711C201.996 150.346 193.589 144.093 193.589 132.831C193.589 121.839 202.731 114.643 216.076 114.643C228.045 114.643 236.359 120.325 240.386 131.691L230.872 137.392C228.399 129.812 223.284 125.653 215.788 125.653C210.124 125.653 205.093 127.83 205.093 132.56C205.093 137.672 209.845 140.607 220.54 142.887ZM0.7626 231.958H29.1462C43.2543 231.958 52.545 239.436 52.545 253.044C52.545 266.652 43.245 274.139 29.1462 274.139H12.5457V296.71H0.7626V231.958ZM12.5457 263.222H28.83C37.0419 263.222 40.7898 259.156 40.7898 253.044C40.7898 246.931 37.0698 242.875 28.83 242.875H12.5457V263.222ZM81.1053 270.438H71.1078V296.71H59.3247V231.958H86.025C99.7704 231.958 108.252 239.08 108.252 250.268C108.252 260.259 102.449 266.157 93.9672 269.325L109.052 296.71H95.5761L81.1053 270.438ZM71.1078 259.708H85.9878C93.2139 259.708 96.4317 256.381 96.4317 251.193C96.4317 246.006 93.2139 242.688 85.9878 242.688H71.1078V259.708ZM145.564 298.028C127.177 298.028 113.423 283.691 113.423 264.381C113.423 245.071 127.177 230.734 145.564 230.734C163.95 230.734 177.704 245.071 177.704 264.381C177.704 283.691 163.959 298 145.564 298V298.028ZM165.745 264.381C165.745 250.408 156.91 241.997 145.564 241.997C134.218 241.997 125.392 250.408 125.392 264.381C125.392 278.354 134.227 286.766 145.564 286.766C156.9 286.766 165.745 278.298 165.745 264.334V264.381ZM233.235 287.869C229.58 293.785 223.507 298.037 214.225 298.037C196.807 298.037 183.238 284.074 183.238 264.39C183.238 244.707 197.792 230.743 215.648 230.743C228.064 230.743 238.238 237.034 242.972 246.567L234.127 253.222C230.287 245.548 223.591 241.473 215.472 241.473C204.488 241.473 195.207 250.259 195.207 264.418C195.207 277.644 203.503 286.803 214.579 286.803C225.376 286.803 230.556 280.046 231.719 272.185H211.547V262.11H243.502V296.692H235.736L233.235 287.869ZM275.02 270.475H265.05V296.748H253.23V231.958H279.93C293.675 231.958 302.157 239.08 302.157 250.268C302.157 260.259 296.354 266.157 287.872 269.325L302.957 296.71H289.481L275.02 270.475ZM265.05 259.708H279.93C287.156 259.708 290.374 256.381 290.374 251.193C290.374 246.006 287.156 242.688 279.93 242.688H265.05V259.708ZM311.829 231.958H354.953V242.875H323.612V257.764H352.442V268.68H323.612V285.794H355.232V296.71H311.801L311.829 231.958ZM390.302 258.231C403.964 261.185 410.762 267.194 410.762 278.111C410.762 288.663 402.02 298 387.466 298C371.935 298 363.537 289.121 361.212 277.279L371.572 271.821C373.265 281.448 377.915 287.27 387.382 287.27C394.441 287.27 398.989 283.756 398.989 278.578C398.989 272.569 393.632 269.98 383.541 267.849C372.205 265.531 364.011 259.437 364.011 248.417C364.011 237.688 372.939 230.659 385.978 230.659C397.668 230.659 405.796 236.211 409.721 247.315L400.421 252.866C398.012 245.464 392.981 241.389 385.69 241.389C380.11 241.389 375.246 243.52 375.246 248.146C375.19 253.137 379.831 256.007 390.274 258.231H390.302ZM444.586 258.231C458.239 261.185 465.046 267.194 465.046 278.111C465.046 288.663 456.295 298 441.741 298C426.21 298 417.812 289.121 415.496 277.279L425.856 271.821C427.549 281.448 432.19 287.27 441.666 287.27C448.716 287.27 453.273 283.756 453.273 278.578C453.273 272.569 447.916 269.98 437.825 267.849C426.489 265.531 418.295 259.437 418.295 248.417C418.295 237.688 427.223 230.659 440.253 230.659C451.952 230.659 460.071 236.211 464.005 247.315L454.705 252.866C452.296 245.464 447.265 241.389 439.974 241.389C434.44 241.389 429.53 243.52 429.53 248.146C429.465 253.137 434.105 256.007 444.54 258.231H444.586ZM383.206 116.166H395.296V182.451H383.206V116.166ZM407.693 116.166H419.941L446.632 158.3C446.632 158.3 448.827 162.038 449.376 163.506V116.166H461.066V182.451H448.837L422.146 140.027C422.146 140.027 419.951 136.233 419.402 134.822V182.488H407.703L407.693 116.166ZM1.209 98.3239H461.02V86.5101H1.209V98.3239ZM251.286 153.561H371.73V141.747H251.286V153.561ZM0.93 212.546H461.02V200.723H0.93V212.546Z" fill="#080D35"/>
</svg>
