<svg width="2305" height="1650" viewBox="0 0 2305 1650" fill="none" xmlns="http://www.w3.org/2000/svg">
<path fill-rule="evenodd" clip-rule="evenodd" d="M2305 0H0V1650H2305V0ZM1570.63 1124.39H1638.19V1245.45H1746.21V1124.39H1813.77V1488.33H1746.21V1302.53H1638.19V1487.95H1570.63V1124.39ZM2002.32 1118.64C1917.97 1118.64 1870.64 1188.75 1870.64 1301C1870.64 1420.14 1917.59 1493.31 2001.94 1493.31C2027.13 1493.31 2048.89 1487.18 2066.83 1475.31L2097.74 1506.34L2140.87 1467.26L2106.14 1432.02C2124.46 1399.84 2134.38 1355.02 2134.38 1301C2134.38 1188.75 2087.05 1118.64 2002.32 1118.64ZM1993.92 1400.6L2021.79 1428.57C2016.06 1431.63 2009.19 1432.4 2002.32 1432.78C1959.57 1432.78 1940.49 1384.51 1940.49 1301.38C1940.49 1233.96 1957.66 1180.32 2002.32 1180.32C2047.36 1180.32 2064.15 1233.19 2064.15 1301.38C2064.15 1333.18 2061.48 1359.61 2055.37 1380.3L2037.05 1361.53L1993.92 1400.6ZM374.815 1014.06L374.433 1098.34L225.194 1064.63L224.812 1151.21L356.876 1180.71V1264.61L224.812 1235.11L224.049 1510.94L141.223 1492.17L142.368 961.96L374.815 1014.06ZM752.304 1220.17L751.159 878.445L670.623 861.206L671.768 1203.69C672.15 1258.48 648.867 1284.91 612.989 1277.25C577.11 1269.59 553.446 1232.81 553.064 1178.03L551.919 835.538L471.383 818.299L472.528 1159.26C472.91 1270.74 533.598 1341.99 613.37 1359.23C693.906 1376.47 752.686 1329.35 752.304 1220.17ZM1355.36 594.949L1356.51 899.512C1356.89 996.818 1304.22 1038.96 1232.84 1023.25C1161.85 1007.93 1107.65 944.334 1107.27 845.112L1106.12 541.316L1177.88 556.64L1179.03 861.585C1179.03 910.238 1200.4 943.185 1232.46 950.08C1264.52 956.976 1285.13 933.224 1284.75 884.571L1283.61 579.626L1355.36 594.949ZM1673.31 857.374L1597.35 627.133C1606.89 623.685 1615.67 618.705 1624.07 610.277C1644.3 589.972 1647.35 559.325 1647.35 543.618C1646.97 476.959 1594.3 427.922 1545.82 417.579L1437.42 394.21L1438.95 806.805L1504.22 820.98L1503.46 619.471L1533.61 625.984L1602.31 842.05L1673.31 857.374ZM1579.41 528.677C1579.41 553.961 1566.82 566.604 1546.2 563.922L1503.84 554.728L1503.46 473.511L1539.72 481.173C1562.24 486.153 1579.41 506.074 1579.41 528.677ZM1880.18 314.139V375.818L1768.35 351.683L1768.73 419.108L1872.55 441.328L1872.93 503.006L1769.11 480.787L1769.49 617.553L1883.23 642.071L1883.62 703.749L1708.04 666.206L1706.51 276.596L1880.18 314.139ZM2127.9 267.786C2127.9 212.62 2093.93 161.285 2038.58 149.409C1985.91 137.916 1950.8 167.031 1951.18 226.028C1951.18 266.254 1970.64 305.33 2003.09 332.53L2032.48 357.048C2055.76 376.203 2074.46 403.019 2074.46 431.752C2074.46 463.166 2059.96 479.639 2038.58 475.042C2011.87 469.295 1998.51 438.264 1996.6 386.929C1996.6 386.109 1996.49 384.959 1996.39 383.891L1996.39 383.888C1996.3 382.963 1996.22 382.099 1996.22 381.566L1939.35 375.82C1942.4 468.146 1979.42 517.949 2039.73 530.974C2096.6 543.233 2133.62 505.69 2133.24 439.414C2132.86 393.825 2111.49 348.62 2070.64 314.907L2038.2 288.473C2018.74 272 2008.05 257.059 2008.05 236.372C2008.05 209.172 2022.17 200.744 2040.11 204.575C2059.19 208.789 2075.99 228.71 2075.99 263.189V268.935L2127.52 273.916C2127.52 273.479 2127.57 272.932 2127.64 272.254V272.251C2127.75 271.143 2127.9 269.685 2127.9 267.786ZM1033.22 742.825V818.295L940.088 798.374L941.615 1199.86L866.423 1183.39L864.896 781.901L771.383 761.979V686.126L1033.22 742.825ZM203.439 147.111H137.408V490.366H200.768V272.767L307.639 490.366H374.053V147.111H310.311V365.86L203.439 147.111ZM679.402 147.111H743.144L777.114 385.398H778.641L821.771 222.581H862.612L906.887 385.398H908.032L945.056 147.111H1007.65L950.781 490.366H883.223L841.237 335.978L800.015 490.366H732.457L679.402 147.111ZM620.62 147.111H441.992V490.366H622.911V435.966H505.351V315.291H612.605V260.891H505.351V201.511H620.62V147.111Z" fill="#080B37"/>
</svg>
