<svg width="2305" height="1650" viewBox="0 0 2305 1650" fill="none" xmlns="http://www.w3.org/2000/svg">
<path d="M2305 0H0V1650H2305V0Z" fill="#080B37"/>
<path d="M1570.63 1124.39H1638.19V1245.45H1746.21V1124.39H1813.77V1488.33H1746.21V1302.53H1638.19V1487.95H1570.63V1124.39Z" fill="#CDCDDA"/>
<path d="M1870.64 1301C1870.64 1188.75 1917.97 1118.64 2002.32 1118.64C2087.05 1118.64 2134.38 1188.75 2134.38 1301C2134.38 1355.02 2124.46 1399.84 2106.14 1432.02L2140.87 1467.26L2097.74 1506.34L2066.83 1475.31C2048.89 1487.18 2027.13 1493.31 2001.94 1493.31C1917.59 1493.31 1870.64 1420.14 1870.64 1301ZM2021.79 1428.57L1993.92 1400.6L2037.05 1361.53L2055.37 1380.3C2061.48 1359.61 2064.15 1333.18 2064.15 1301.38C2064.15 1233.19 2047.36 1180.32 2002.32 1180.32C1957.66 1180.32 1940.49 1233.96 1940.49 1301.38C1940.49 1384.51 1959.57 1432.78 2002.32 1432.78C2009.19 1432.4 2016.06 1431.63 2021.79 1428.57Z" fill="#CDCDDA"/>
<path d="M374.815 1014.06L374.433 1098.34L225.194 1064.63L224.812 1151.21L356.876 1180.71V1264.61L224.812 1235.11L224.049 1510.94L141.223 1492.17L142.368 961.96L374.815 1014.06Z" fill="#CDCDDA"/>
<path d="M751.159 878.445L752.304 1220.17C752.686 1329.35 693.906 1376.47 613.37 1359.23C533.598 1341.99 472.91 1270.74 472.528 1159.26L471.383 818.299L551.919 835.538L553.064 1178.03C553.446 1232.81 577.11 1269.59 612.989 1277.25C648.867 1284.91 672.15 1258.48 671.768 1203.69L670.623 861.206L751.159 878.445Z" fill="#CDCDDA"/>
<path d="M1355.36 594.949L1356.51 899.512C1356.89 996.818 1304.22 1038.96 1232.84 1023.25C1161.85 1007.93 1107.65 944.334 1107.27 845.112L1106.12 541.316L1177.88 556.64L1179.02 861.585C1179.02 910.238 1200.4 943.185 1232.46 950.08C1264.52 956.976 1285.13 933.224 1284.75 884.571L1283.61 579.626L1355.36 594.949Z" fill="#CDCDDA"/>
<path d="M1597.35 627.133L1673.31 857.374L1602.31 842.05L1533.61 625.984L1503.46 619.471L1504.22 820.98L1438.95 806.805L1437.42 394.21L1545.82 417.579C1594.3 427.922 1646.97 476.959 1647.35 543.618C1647.35 559.325 1644.3 589.972 1624.07 610.277C1615.67 618.705 1606.89 623.685 1597.35 627.133ZM1546.2 563.922C1566.82 566.604 1579.41 553.961 1579.41 528.677C1579.41 506.074 1562.24 486.153 1539.72 481.173L1503.46 473.511L1503.84 554.728L1546.2 563.922Z" fill="#CDCDDA"/>
<path d="M1880.18 314.139V375.818L1768.35 351.683L1768.73 419.108L1872.55 441.328L1872.93 503.006L1769.11 480.787L1769.49 617.552L1883.23 642.071L1883.62 703.749L1708.04 666.206L1706.51 276.596L1880.18 314.139Z" fill="#CDCDDA"/>
<path d="M2038.58 149.409C2093.93 161.285 2127.9 212.62 2127.9 267.786C2127.9 270.851 2127.52 272.766 2127.52 273.916L2075.99 268.935V263.189C2075.99 228.71 2059.19 208.789 2040.11 204.575C2022.17 200.744 2008.05 209.172 2008.05 236.372C2008.05 257.059 2018.74 272 2038.2 288.473L2070.65 314.907C2111.49 348.62 2132.86 393.825 2133.24 439.414C2133.62 505.69 2096.6 543.233 2039.73 530.974C1979.42 517.949 1942.4 468.146 1939.35 375.82L1996.22 381.566C1996.22 382.715 1996.6 385.397 1996.6 386.929C1998.51 438.264 2011.87 469.295 2038.58 475.042C2059.96 479.639 2074.46 463.166 2074.46 431.752C2074.46 403.019 2055.76 376.203 2032.48 357.048L2003.09 332.53C1970.64 305.33 1951.18 266.254 1951.18 226.028C1950.8 167.031 1985.91 137.916 2038.58 149.409Z" fill="#CDCDDA"/>
<path d="M1033.22 742.825V818.295L940.088 798.374L941.615 1199.86L866.423 1183.39L864.896 781.901L771.383 761.979V686.126L1033.22 742.825Z" fill="#CDCDDA"/>
<path d="M137.408 147.111H203.439L310.311 365.86V147.111H374.053V490.366H307.64L200.768 272.767V490.366H137.408V147.111Z" fill="#CDCDDA"/>
<path d="M679.402 147.111H743.144L777.114 385.398H778.641L821.771 222.581H862.612L906.887 385.398H908.032L945.056 147.111H1007.65L950.781 490.366H883.223L841.237 335.978L800.015 490.366H732.457L679.402 147.111Z" fill="#CDCDDA"/>
<path d="M441.61 147.111H620.621V201.511H505.351V260.891H612.605V315.291H505.351V435.966H622.911V490.366H441.992V147.111H441.61Z" fill="#CDCDDA"/>
</svg>
