<?xml version="1.0" standalone="no"?>
<!DOCTYPE svg PUBLIC "-//W3C//DTD SVG 20010904//EN"
 "http://www.w3.org/TR/2001/REC-SVG-20010904/DTD/svg10.dtd">
<svg version="1.0" xmlns="http://www.w3.org/2000/svg"
 width="256.000000pt" height="256.000000pt" viewBox="0 0 256.000000 256.000000"
 preserveAspectRatio="xMidYMid meet">
<metadata>
Created by potrace 1.11, written by Peter Selinger 2001-2013
</metadata>
<g transform="translate(0.000000,256.000000) scale(0.100000,-0.100000)"
fill="#000000" stroke="none">
<path d="M1407 2502 c-15 -15 -27 -33 -27 -39 0 -6 -4 -13 -9 -15 -4 -1 -12
-14 -16 -27 -6 -18 -4 -22 6 -15 12 7 12 5 1 -9 -9 -10 -11 -24 -6 -39 4 -13
7 -30 6 -38 -3 -13 -2 -13 7 0 10 14 16 7 12 -13 -1 -5 8 -11 19 -14 11 -3 17
-10 14 -15 -4 -6 6 -9 22 -8 16 1 31 1 34 0 10 -3 45 -10 86 -16 l41 -6 2 71
c2 79 8 73 -76 73 -23 0 -47 -3 -53 -7 -9 -5 -16 41 -10 70 3 17 -11 75 -19
75 -4 0 -19 -13 -34 -28z"/>
<path d="M992 2377 c10 -16 12 -36 7 -77 -5 -30 -9 -75 -10 -99 -2 -24 -9 -45
-16 -48 -7 -3 -13 -14 -13 -24 0 -10 -7 -19 -15 -19 -7 0 -18 -6 -22 -13 -4
-7 -35 -24 -68 -37 -72 -29 -135 -83 -135 -116 0 -12 5 -26 11 -29 7 -5 3 -14
-9 -26 -30 -27 -37 -57 -18 -78 14 -16 13 -20 -9 -53 -29 -43 -31 -63 -9 -72
27 -10 58 -5 89 15 17 10 37 22 45 26 8 3 26 17 39 30 22 21 51 31 51 17 0
-16 -35 -143 -46 -171 -8 -17 -14 -35 -14 -41 0 -5 -15 -25 -34 -45 -21 -22
-43 -62 -56 -102 -33 -99 -150 -253 -205 -270 -18 -5 -54 -29 -80 -52 -25 -24
-48 -43 -51 -43 -7 0 -56 -52 -89 -95 -61 -81 -72 -125 -31 -125 22 0 23 -2
16 -37 -9 -40 1 -63 27 -63 11 0 13 -7 8 -28 -8 -38 13 -55 60 -49 30 4 39 1
51 -18 16 -25 45 -135 38 -146 -2 -4 3 -33 12 -65 18 -68 25 -154 14 -169 -4
-5 -10 -41 -14 -79 -3 -37 -11 -76 -16 -86 -9 -17 -5 -19 32 -24 24 -3 205 -8
403 -11 198 -3 379 -8 401 -11 27 -4 44 -2 49 6 4 6 7 43 7 81 0 38 3 71 7 73
4 3 4 35 0 73 -7 69 7 182 24 194 5 4 4 10 -2 14 -7 3 -9 15 -6 26 8 24 -2 24
-65 0 -27 -11 -50 -17 -50 -15 0 3 -27 -21 -75 -67 -12 -10 -26 -19 -33 -19
-7 0 -12 -5 -12 -12 0 -6 -3 -9 -6 -6 -3 4 -30 -5 -60 -18 -29 -13 -61 -21
-70 -17 -12 4 -15 3 -10 -5 5 -8 -1 -12 -16 -12 -13 0 -36 -7 -52 -15 -16 -9
-40 -16 -53 -17 -12 -1 -23 -5 -23 -9 0 -4 -11 -9 -25 -11 -17 -4 -25 -1 -25
9 0 8 5 11 12 7 7 -5 8 -3 3 6 -5 8 -1 18 10 27 11 7 15 13 11 13 -4 0 7 12
26 28 18 15 44 36 57 47 13 11 34 29 47 40 12 11 32 27 44 35 38 25 120 106
120 117 0 6 7 16 15 23 8 7 15 18 15 24 0 6 -5 4 -10 -4 -8 -12 -13 -11 -33 8
-13 12 -28 22 -34 22 -19 0 -23 30 -9 65 24 56 45 63 191 64 71 0 132 -5 135
-10 4 -5 23 0 44 10 31 16 139 36 169 32 10 -2 37 25 37 36 0 4 18 18 40 31
22 12 40 27 40 32 0 5 13 31 29 57 51 83 59 138 47 298 -9 117 -32 178 -91
241 -19 22 -35 42 -35 47 0 4 -7 7 -15 7 -8 0 -23 8 -33 18 -26 24 -59 42 -77
42 -21 0 -19 18 13 110 3 8 6 17 6 20 1 3 7 14 12 25 6 11 14 34 17 51 3 17
20 61 36 98 17 37 31 73 31 81 0 8 4 15 9 15 5 0 11 10 14 23 3 12 26 69 51
126 25 57 46 107 46 112 0 15 -22 11 -97 -18 -68 -27 -73 -31 -94 -78 -13 -27
-33 -64 -45 -81 l-23 -31 25 -13 c29 -16 40 -52 28 -89 -7 -19 -20 -29 -49
-36 -35 -9 -40 -13 -37 -35 1 -14 -7 -56 -19 -95 -11 -38 -23 -83 -26 -100 -3
-16 -10 -36 -16 -43 -8 -10 -5 -14 11 -19 12 -3 22 -8 22 -12 0 -17 -34 -52
-65 -67 -19 -9 -35 -20 -35 -25 0 -5 -7 -9 -15 -9 -9 0 -30 -7 -47 -16 -17 -9
-40 -18 -52 -20 -70 -13 -87 -17 -91 -25 -3 -4 -13 -5 -21 -2 -9 3 -12 9 -7
12 4 3 13 13 18 23 6 9 31 46 58 83 26 36 45 70 42 75 -3 4 2 13 10 20 8 7 12
16 9 21 -3 5 0 9 6 9 6 0 9 4 6 8 -3 5 0 28 6 51 9 35 17 46 45 57 32 14 43
37 23 49 -5 3 -22 -3 -37 -15 -24 -17 -35 -19 -75 -12 -33 7 -55 5 -77 -4 -68
-29 -44 24 72 159 23 26 47 47 53 47 20 0 35 26 27 48 -7 19 -15 14 -86 -52
-42 -40 -77 -78 -77 -85 0 -6 -4 -11 -10 -11 -12 0 -13 10 -1 29 5 7 5 27 1
42 -8 26 -6 29 14 29 14 0 27 9 34 24 8 19 6 29 -11 55 -27 38 -38 39 -59 4
-11 -18 -18 -22 -18 -12 0 8 25 48 56 87 30 40 52 72 48 72 -4 0 5 11 20 25
14 13 26 28 26 33 0 15 -53 21 -194 21 l-128 1 14 -23z m153 -237 c3 -5 1 -10
-4 -10 -6 0 -11 5 -11 10 0 6 2 10 4 10 3 0 8 -4 11 -10z m-165 -70 c0 -5 -2
-10 -4 -10 -3 0 -8 5 -11 10 -3 6 -1 10 4 10 6 0 11 -4 11 -10z m-27 -64 c-2
-22 -7 -42 -12 -45 -5 -4 -13 -19 -16 -34 -4 -15 -12 -26 -19 -25 -18 3 -55
-12 -118 -49 -33 -19 -61 -33 -63 -31 -22 22 61 98 107 98 18 0 39 10 54 25
43 43 7 60 -61 28 -19 -9 -35 -20 -35 -25 0 -4 -9 -8 -20 -8 -11 0 -20 3 -20
8 0 16 68 68 85 66 11 -2 30 6 44 17 15 10 37 18 51 16 22 -2 25 -6 23 -41z
m-118 -193 c-3 -29 -18 -57 -40 -75 -24 -20 -93 -44 -101 -35 -9 8 26 50 76
92 46 38 68 44 65 18z m822 -258 c2 -6 -5 -15 -15 -21 -15 -10 -18 -8 -20 13
-1 18 2 24 15 21 9 -2 18 -8 20 -13z m3 -35 c0 -5 -5 -10 -11 -10 -5 0 -7 5
-4 10 3 6 8 10 11 10 2 0 4 -4 4 -10z m-27 -12 c25 -12 31 -23 30 -56 -1 -7 5
-11 12 -8 9 3 12 0 9 -9 -3 -8 3 -16 15 -20 12 -3 19 -10 16 -15 -3 -5 -1 -11
5 -15 6 -4 7 -11 4 -17 -4 -6 0 -14 7 -19 10 -6 11 -9 2 -9 -7 0 -13 -4 -13
-10 0 -5 7 -7 15 -4 11 5 13 2 8 -12 -4 -12 -3 -15 5 -10 7 4 12 2 12 -3 0 -6
-6 -11 -12 -11 -9 0 -13 -14 -12 -40 2 -62 -29 -143 -70 -184 -20 -20 -40 -36
-45 -36 -4 0 -18 -11 -31 -25 -13 -14 -31 -25 -41 -25 -10 0 -24 -6 -31 -13
-7 -8 -26 -13 -41 -13 -16 1 -31 -2 -33 -6 -3 -4 -12 -4 -21 -1 -11 5 -14 3
-8 -6 6 -10 3 -11 -13 -2 -11 6 -46 9 -79 7 -53 -3 -106 2 -188 20 -63 13
-490 24 -515 13 -8 -3 -43 -20 -78 -38 -75 -37 -81 -38 -56 -10 10 11 19 36
19 54 l2 34 -56 -54 c-74 -71 -106 -95 -125 -95 -31 0 -20 18 75 121 43 46
131 101 187 118 24 7 94 17 155 23 128 11 460 14 478 3 6 -5 59 -9 118 -11 58
-2 120 -6 138 -9 27 -5 31 -3 26 14 -5 20 -33 38 -33 21 0 -5 -6 -7 -14 -4
-12 5 -31 7 -90 13 -5 1 2 12 16 26 13 13 39 53 57 87 36 68 153 248 162 248
3 0 17 -6 32 -12z m-1185 -622 c-10 -7 -14 -17 -10 -21 4 -5 2 -5 -5 -1 -7 4
-18 -4 -27 -21 -8 -15 -15 -24 -16 -19 0 5 -7 3 -16 -4 -13 -12 -14 -11 -4 11
6 13 26 34 43 46 35 23 63 31 35 9z"/>
<path d="M1427 2093 c-26 -55 3 -105 48 -85 29 14 34 55 9 90 -20 30 -41 28
-57 -5z"/>
<path d="M1295 760 c-19 -8 -19 -9 2 -9 12 -1 25 4 28 9 7 12 -2 12 -30 0z"/>
<path d="M1235 720 c-3 -5 -1 -10 4 -10 6 0 11 5 11 10 0 6 -2 10 -4 10 -3 0
-8 -4 -11 -10z"/>
</g>
</svg>
