<svg width="255" height="115" viewBox="0 0 255 115" fill="none" xmlns="http://www.w3.org/2000/svg">
<path d="M61.8 51.9385C48.3 49.5385 40.2 37.8385 42.6 23.7385C45 9.63849 56.4 1.23849 69.6 3.33849C80.1 5.13849 87.3 12.6385 87.9 23.1385L74.7 24.9385C74.4 19.8385 71.7 16.2385 67.5 15.6385C62.1 14.7385 57 18.9385 55.8 25.8385C54.6 32.7385 57.9 38.4385 63.3 39.3385C67.8 40.2385 72.3 37.2385 73.5 32.1385L85.8 38.1385C82.2 48.6385 72.9 53.7385 61.8 51.9385ZM120.9 48.3385C107.4 51.3385 95.4 43.5385 92.4 29.7385C89.4 15.9385 96.9 3.6385 110.1 0.638495C123.6 -2.3615 135.6 5.43849 138.6 19.2385C141.6 33.0385 134.1 45.3385 120.9 48.3385ZM125.4 21.9385C123.9 15.0385 118.5 11.1385 112.8 12.3385C107.1 13.5385 103.8 19.5385 105.3 26.4385C106.8 33.3385 112.2 37.2385 117.9 36.0385C123.9 34.8385 126.9 28.8385 125.4 21.9385ZM198 20.7385L200.1 47.4385L213 46.5385L210.6 17.1385C209.7 6.33849 202.8 -0.561507 193.8 0.0384929C187.8 0.638493 182.4 4.23849 180.6 9.63849C177.6 4.53849 172.8 1.8385 167.1 2.1385C161.1 2.4385 156.3 6.03849 154.8 10.8385L151.8 4.5385L141.6 5.4385L145.2 51.9385L158.1 51.0385L156.3 26.1385C155.7 20.1385 159 15.6385 163.5 15.3385C167.7 15.0385 170.4 18.3385 171 23.4385L173.1 49.8385L186 48.9385L184.2 24.0385C183.6 18.0385 186.6 13.5385 191.1 13.2385C194.7 12.6385 197.7 15.6385 198 20.7385ZM48.3 73.8385C47.7 88.2385 39 98.4385 27.9 98.1385C22.2 97.8385 17.4 95.1385 14.1 90.3385L13.2 114.938L0 114.338L2.4 48.9385L12.6 49.2385L14.7 55.2385C18.3 50.7385 23.4 48.3385 29.1 48.6385C40.5 49.2385 48.9 59.7385 48.3 73.8385ZM35.1 73.5385C35.4 66.6385 31.2 61.5385 25.2 61.2385C19.2 60.9385 14.7 65.7385 14.4 72.6385C14.1 79.5385 18.3 84.6385 24.3 84.9385C30.3 85.2385 34.8 80.4385 35.1 73.5385ZM92.1 79.8385L87.9 100.239L86.1 109.538L75.9 107.438L75 101.739C71.1 105.039 66 106.538 60 105.338C51.3 103.538 46.2 96.6385 48 88.5385C49.2 82.5385 54.9 78.3385 61.5 78.3385H77.1C78.3 78.3385 78.9 77.7385 79.2 77.1385C79.8 73.8385 77.7 71.1385 73.8 70.2385C70.2 69.3385 66.6 71.4385 65.7 74.7385L54.3 67.8385C57.9 60.6385 66.9 56.7385 75.9 58.5385C87.6 60.9385 94.2 69.6385 92.1 79.8385ZM77.7 85.2385C77.7 85.5385 76.2 85.2385 74.4 85.2385H67.2C64.5 85.2385 62.7 86.4385 62.1 88.8385C61.5 91.2385 63 93.3385 66.3 94.2385C71.1 95.1385 76.2 92.1385 77.4 86.1385L77.7 85.2385ZM126.6 74.7385L126.3 100.239H139.5L139.8 72.6385C139.8 60.9385 133.2 52.5385 123.6 52.2385C117.3 52.2385 111.3 55.5385 109.2 60.6385L106.5 53.4385H96.3L96 100.239H109.2L109.5 76.2385C109.5 69.9385 113.7 65.1385 118.8 65.1385C123.3 64.8385 126.6 69.0385 126.6 74.7385ZM144.6 60.3385L144 107.138L157.2 107.438L157.5 60.6385L144.6 60.3385ZM207.6 82.8385C207.6 96.9385 197.7 107.438 183.9 107.438C170.1 107.438 160.2 97.2385 160.2 82.8385C160.2 68.7385 170.1 58.2385 183.9 58.2385C197.7 58.5385 207.6 68.7385 207.6 82.8385ZM194.1 82.8385C194.1 75.9385 189.9 70.8385 183.9 70.8385C177.9 70.8385 173.7 75.9385 173.7 82.8385C173.7 89.7385 177.9 94.8385 183.9 94.8385C189.9 94.8385 194.1 89.7385 194.1 82.8385ZM241.2 74.4385L241.8 99.9385L255 99.6385L254.1 72.0385C253.8 60.3385 246.9 51.9385 237.3 52.2385C231 52.5385 225.3 56.1385 223.2 60.9385L220.2 53.7385L210 54.0385L211.5 100.838L224.7 100.538L224.1 76.5385C223.8 70.2385 227.7 65.1385 233.1 65.1385C237.6 64.8385 240.9 68.7385 241.2 74.4385Z" fill="#1B1C1D"/>
</svg>
