<?xml version="1.0" standalone="no"?>
<!DOCTYPE svg PUBLIC "-//W3C//DTD SVG 20010904//EN"
 "http://www.w3.org/TR/2001/REC-SVG-20010904/DTD/svg10.dtd">
<svg version="1.0" xmlns="http://www.w3.org/2000/svg"
 width="261.000000pt" height="261.000000pt" viewBox="0 0 261.000000 261.000000"
 preserveAspectRatio="xMidYMid meet">
<metadata>
Created by potrace 1.14, written by Peter Selinger 2001-2017
</metadata>
<g transform="translate(0.000000,261.000000) scale(0.100000,-0.100000)"
fill="#000000" stroke="none">
<path d="M1170 2054 c-276 -58 -462 -218 -551 -473 -27 -77 -34 -131 -32 -261
3 -386 242 -695 593 -766 92 -18 257 -11 350 16 204 58 355 179 433 345 31 65
36 78 48 125 12 49 16 76 19 130 4 68 5 67 -57 69 -32 1 -74 4 -93 6 -19 2
-80 7 -135 10 -55 3 -107 8 -116 11 -13 4 -17 -7 -22 -61 -15 -162 -123 -268
-273 -268 -246 0 -410 350 -281 600 64 123 236 177 350 110 48 -28 113 -97
128 -134 5 -13 12 -23 17 -23 5 0 88 45 185 101 l177 101 -27 51 c-40 73 -175
206 -248 244 -60 31 -130 57 -182 68 -61 13 -220 13 -283 -1z"/>
</g>
</svg>
