<svg width="84" height="35" viewBox="0 0 84 35" fill="none" xmlns="http://www.w3.org/2000/svg">
<path d="M25.5779 14.7734C25.5779 14.2942 25.1881 13.9043 24.709 13.9043C24.2298 13.9043 23.8398 14.2942 23.8398 14.7734C23.8398 15.2521 24.2298 15.642 24.709 15.642C25.1881 15.642 25.5779 15.2521 25.5779 14.7734" fill="#E8E8EE"/>
<path d="M27.8724 19.1801C27.8724 18.0947 28.7553 17.2116 29.8407 17.2116C30.9258 17.2116 31.809 18.0947 31.809 19.1801C31.809 20.2656 30.9258 21.1487 29.8407 21.1487C29.7831 21.1487 29.7261 21.1458 29.6696 21.1409C29.3622 21.1144 29.0654 21.0155 28.8035 20.8523C28.245 20.5044 27.8724 19.8852 27.8724 19.1801ZM23.539 21.1522L29.6603 12.7671H31.0857L30.7585 13.2153L26.5158 19.027L24.9644 21.1522H23.539ZM22.741 14.7734C22.741 13.6878 23.6243 12.8049 24.7095 12.8049C25.7949 12.8049 26.6782 13.6878 26.6782 14.7734C26.6782 15.8586 25.7949 16.7416 24.7095 16.7416C23.6242 16.7416 22.741 15.8586 22.741 14.7734ZM21.0301 31.1197H14.1993V9.97618L11.6544 9.95223L11.6604 8.96812L11.6755 6.52811L13.7035 4.72186L14.9716 3.59238H21.0301L21.0301 31.1197ZM34.9908 16.9485C34.9878 16.8535 34.9844 16.7586 34.9798 16.664C34.9731 16.5237 34.9648 16.3834 34.9549 16.2433C34.9512 16.1922 34.9476 16.1409 34.9435 16.0898C34.936 15.9965 34.9276 15.9034 34.9187 15.8105C34.9145 15.7663 34.9106 15.7218 34.9061 15.6777C34.8925 15.5466 34.8775 15.4156 34.8611 15.2848C34.8605 15.28 34.8601 15.2752 34.8595 15.2703C34.8424 15.1357 34.8233 15.0016 34.8031 14.868C34.7964 14.8237 34.7891 14.7797 34.782 14.7355C34.7678 14.6454 34.7529 14.5554 34.7373 14.4654C34.7284 14.4145 34.719 14.3637 34.7097 14.313C34.6943 14.2293 34.6783 14.1457 34.6616 14.0623C34.6346 13.9246 34.6055 13.7873 34.5744 13.6504C34.5641 13.6046 34.5541 13.5588 34.5435 13.5131C34.5164 13.3968 34.4881 13.2811 34.4587 13.1657C34.4538 13.1463 34.4489 13.1267 34.4439 13.1073C34.4125 12.9856 34.3797 12.8643 34.3455 12.7433C34.3324 12.6968 34.3185 12.6505 34.305 12.6042C34.2813 12.5227 34.2573 12.4414 34.2325 12.3605C34.2165 12.3081 34.1999 12.2559 34.1833 12.2037C34.1427 12.0754 34.1005 11.9476 34.057 11.8203C34.031 11.7442 34.004 11.6685 33.9769 11.593C33.9593 11.5436 33.9418 11.4941 33.9237 11.445C33.8888 11.3506 33.8531 11.2565 33.8165 11.1627C33.7596 11.016 33.7008 10.8701 33.6399 10.725C33.6184 10.674 33.5962 10.6234 33.5742 10.5726C33.5445 10.5033 33.5143 10.4342 33.4836 10.3653C33.4589 10.3102 33.4338 10.2554 33.4086 10.2006C33.3792 10.1365 33.3493 10.0726 33.3191 10.0089C33.2926 9.95311 33.2661 9.89737 33.239 9.84193C33.2084 9.77908 33.1771 9.71651 33.1457 9.65407C33.1182 9.59945 33.091 9.54483 33.0631 9.49051C33.0277 9.422 32.9914 9.35403 32.9552 9.28593C32.9098 9.20081 32.8638 9.11607 32.817 9.03174C32.7797 8.96435 32.7424 8.89678 32.7042 8.82992C32.6714 8.77254 32.6378 8.71581 32.6044 8.65883C32.5727 8.60481 32.541 8.55066 32.5086 8.49698C32.4732 8.4381 32.4374 8.37944 32.4012 8.32101C32.333 8.21046 32.2636 8.10067 32.1929 7.99166C32.1618 7.94357 32.1302 7.89584 32.0985 7.84817C32.0587 7.78802 32.0191 7.72787 31.9785 7.66831C31.9501 7.62652 31.921 7.58526 31.8922 7.54383C31.8043 7.41688 31.7147 7.29112 31.6234 7.16657C31.6008 7.13585 31.5787 7.1046 31.5558 7.07399C31.5085 7.01031 31.4602 6.94734 31.4122 6.88436C31.383 6.84628 31.3541 6.8082 31.3247 6.7703C31.2471 6.67076 31.1686 6.57202 31.089 6.47409C31.0384 6.4118 30.9874 6.34986 30.936 6.28828C30.9085 6.2552 30.8806 6.2226 30.8529 6.18976C30.7978 6.12496 30.7428 6.06016 30.6869 5.99613C30.6726 5.97976 30.658 5.96376 30.6437 5.94745C30.4402 5.71619 30.2306 5.49031 30.0152 5.27003C29.993 5.24726 29.9709 5.2243 29.9486 5.20164C29.7971 5.04875 29.643 4.89845 29.4864 4.75082C29.4654 4.73104 29.4441 4.7115 29.423 4.69179C29.1043 4.39506 28.7748 4.11022 28.435 3.83786C28.4219 3.82744 28.409 3.81685 28.3958 3.80637C28.3175 3.74405 28.2386 3.68241 28.1593 3.62145C28.141 3.60739 28.1227 3.59326 28.1043 3.57931C28.0242 3.5182 27.9436 3.45774 27.8626 3.39792L27.8233 3.36938C27.6169 3.21853 27.4072 3.0722 27.1944 2.9305C27.0285 2.81965 26.8607 2.71165 26.6911 2.60656C26.6883 2.60474 26.6855 2.60303 26.6827 2.60126C26.5897 2.54382 26.4961 2.48744 26.402 2.43176C26.3904 2.42487 26.3788 2.418 26.3672 2.41116C26.2732 2.35583 26.1788 2.30132 26.0838 2.24766L26.067 2.23837C25.7512 2.06122 25.43 1.89399 25.1037 1.73692C24.8998 1.63777 24.6938 1.54265 24.4861 1.45159C24.381 1.40581 24.2754 1.36096 24.1693 1.31717C24.1687 1.31693 24.1681 1.31658 24.1675 1.31646C23.8025 1.16634 23.4324 1.02871 23.058 0.903833C22.8707 0.840767 22.6824 0.780864 22.4931 0.724149L22.4768 0.719264C22.3715 0.688183 22.2659 0.658048 22.16 0.628863C22.1527 0.626921 22.1456 0.624744 22.1382 0.622684V0.623037C20.6607 0.217763 19.1056 0 17.4992 0C14.9407 0 12.5112 0.550763 10.3204 1.53776C10.3198 1.53745 10.3191 1.53718 10.3184 1.53693C10.2871 1.551 10.2561 1.56565 10.225 1.57996C10.1437 1.61711 10.0628 1.65492 9.98213 1.69337C9.83946 1.76115 9.69773 1.83086 9.55696 1.90248C9.52394 1.91937 9.49122 1.93685 9.45826 1.95386C9.38138 1.99372 9.30478 2.03413 9.22849 2.0751C9.18841 2.0967 9.14827 2.11818 9.10843 2.14002C9.01035 2.19363 8.91279 2.24818 8.81574 2.30364C8.7819 2.32306 8.74829 2.34307 8.71457 2.36267C8.64141 2.40516 8.56861 2.44818 8.4961 2.49179C8.45708 2.51528 8.41812 2.53864 8.37927 2.56236C8.28464 2.62027 8.19053 2.67889 8.09712 2.73851C8.06222 2.76082 8.02762 2.7836 7.99295 2.80608C7.9238 2.85093 7.85505 2.89619 7.78666 2.94186C7.74859 2.96734 7.71057 2.99271 7.67272 3.01837C7.58174 3.08021 7.49134 3.14289 7.40152 3.20641C7.36603 3.23148 7.33089 3.25708 7.29558 3.28245C7.23043 3.32936 7.16551 3.37668 7.10107 3.42441C7.06399 3.45183 7.02679 3.47926 6.98989 3.50692C6.90278 3.57249 6.81627 3.63876 6.73046 3.70585C6.69456 3.73398 6.65895 3.76247 6.62322 3.79084C6.5619 3.83969 6.50086 3.88871 6.44019 3.93833C6.40405 3.96781 6.36785 3.99706 6.33207 4.0269C6.24889 4.09583 6.16639 4.16558 6.08458 4.23613C6.04845 4.26727 6.01266 4.29875 5.97688 4.33018C5.91955 4.3804 5.86254 4.43097 5.80585 4.48191C5.77054 4.51369 5.73499 4.5453 5.69991 4.57737C5.62104 4.64947 5.54281 4.72227 5.46526 4.79578C5.42918 4.83009 5.39339 4.86464 5.35755 4.89919C5.30417 4.95069 5.25114 5.00248 5.19841 5.05457C5.16392 5.0887 5.12919 5.12272 5.095 5.15709C5.02051 5.23199 4.9467 5.30756 4.87359 5.3838C4.83757 5.42135 4.8019 5.45925 4.76618 5.4971C4.71692 5.54936 4.66807 5.60192 4.61939 5.65483C4.58567 5.69149 4.55171 5.72798 4.51828 5.76488C4.36535 5.93402 4.21583 6.1062 4.06981 6.28134C4.03202 6.32654 3.99412 6.37185 3.95681 6.41735C3.77114 6.64401 3.59122 6.87533 3.41723 7.11107C3.29582 7.27504 3.1775 7.44128 3.06233 7.60969C3.0143 7.67961 2.96678 7.74988 2.91979 7.82051C2.88063 7.8792 2.84185 7.93813 2.80343 7.99731C2.77006 8.04886 2.73692 8.10066 2.70408 8.15257C2.62146 8.28345 2.54049 8.41538 2.46119 8.5483C2.429 8.60227 2.3968 8.65624 2.36526 8.71057C2.30408 8.81576 2.24405 8.9216 2.18516 9.02809C2.13602 9.11678 2.08764 9.20589 2.04002 9.29541C2.01342 9.34549 1.98682 9.39546 1.96075 9.44578C1.93011 9.50475 1.89982 9.5639 1.86988 9.62323C1.84551 9.67149 1.82161 9.71999 1.79772 9.76836C1.74985 9.86542 1.7029 9.96293 1.65688 10.0609C1.63475 10.1077 1.61274 10.1546 1.59108 10.2017C1.5623 10.2643 1.53381 10.3271 1.50586 10.39C1.48549 10.4358 1.4656 10.4818 1.44559 10.5277C1.39986 10.6329 1.35517 10.7385 1.31152 10.8446C1.29328 10.8888 1.27503 10.933 1.2572 10.9774C1.23071 11.0435 1.20446 11.1097 1.17868 11.1761C1.16221 11.2185 1.14631 11.2613 1.13013 11.3039C1.08711 11.4175 1.04514 11.5317 1.00447 11.6464C0.964912 11.7575 0.926517 11.869 0.889296 11.9809C0.876701 12.0187 0.864577 12.0568 0.852217 12.0949C0.812407 12.2176 0.773953 12.3407 0.736862 12.4643C0.724973 12.5041 0.713026 12.5439 0.701314 12.5839C0.679963 12.6567 0.659089 12.7296 0.638692 12.8027C0.629864 12.8346 0.621389 12.8667 0.612737 12.8987C0.57672 13.0311 0.542287 13.164 0.509447 13.2972C0.481091 13.4114 0.453957 13.5259 0.428051 13.6407C0.422989 13.6633 0.418281 13.6859 0.413337 13.7084C0.372982 13.8908 0.335605 14.0739 0.301219 14.2575C0.286505 14.3361 0.271968 14.4148 0.258255 14.4938C0.257195 14.5002 0.256195 14.5068 0.255077 14.5132C0.220614 14.7139 0.189671 14.9153 0.162263 15.1171C0.151293 15.197 0.140856 15.2769 0.130952 15.3569L0.13154 15.3579C0.0442085 16.0688 0.000280247 16.7844 0 17.5006C0 24.0431 3.59132 29.7463 8.90944 32.7488L8.90961 32.7494C8.94075 32.7671 8.97229 32.7841 9.0036 32.8014C9.10931 32.8603 9.21572 32.918 9.32266 32.9746C9.36468 32.997 9.40647 33.0192 9.44861 33.0411C9.51258 33.0743 9.57691 33.1071 9.64136 33.1394C9.68144 33.1597 9.72169 33.1796 9.76201 33.1995C9.89594 33.2656 10.0307 33.3301 10.1663 33.3928C10.1839 33.4009 10.2014 33.4093 10.2191 33.4174C10.3232 33.465 10.4277 33.5115 10.5327 33.5569C10.7765 33.6628 11.0227 33.7631 11.2711 33.8577C11.2892 33.8646 11.3074 33.8716 11.3257 33.8785C11.5953 33.9802 11.8674 34.0752 12.1417 34.1633L12.1431 34.1638C12.5218 34.2854 12.9045 34.3939 13.2906 34.4892L13.2912 34.4894C14.6681 34.8291 16.081 35.0006 17.4991 35C22.2715 35 26.5968 33.0892 29.7537 29.992L29.7546 29.991C29.8703 29.8775 29.9844 29.7624 30.0969 29.6458C30.2048 29.5339 30.3113 29.4206 30.4163 29.3059L30.4213 29.3003C30.6342 29.0673 30.8409 28.8287 31.0411 28.5844L31.0458 28.5786C31.141 28.4623 31.2347 28.3447 31.3269 28.2259L31.3545 28.1905C31.443 28.0759 31.5301 27.9602 31.6158 27.8435C31.6269 27.8284 31.6379 27.8132 31.6489 27.7982C31.7341 27.6814 31.8178 27.5637 31.9001 27.4449C31.9087 27.4324 31.9173 27.4196 31.9259 27.4072C32.011 27.2839 32.0944 27.1594 32.1763 27.0339L32.1764 27.0337C32.2533 26.9156 32.3288 26.7965 32.4029 26.6765L32.4059 26.6718C32.4788 26.5535 32.5503 26.4344 32.6203 26.3144C32.6224 26.3107 32.6246 26.3071 32.6268 26.3036C32.6956 26.1855 32.7631 26.0666 32.8291 25.947C32.8323 25.9411 32.8356 25.9354 32.8388 25.9296C32.9035 25.812 32.9669 25.6935 33.0291 25.5743C33.0332 25.5662 33.0375 25.5583 33.0417 25.5502C33.1024 25.4333 33.1617 25.3157 33.2195 25.1974C33.2249 25.1866 33.2304 25.176 33.2357 25.1651C33.2922 25.0494 33.3471 24.9328 33.4012 24.8157C33.4074 24.8021 33.4139 24.7886 33.4202 24.775C33.4727 24.6603 33.5237 24.5448 33.5738 24.4288C33.5808 24.4124 33.5882 24.3962 33.5952 24.3798C33.6437 24.2663 33.691 24.1523 33.737 24.0377C33.7447 24.0184 33.7529 23.9991 33.7606 23.9797C33.8053 23.8674 33.8488 23.7547 33.8911 23.6414C33.8994 23.6193 33.9081 23.5973 33.9162 23.5751C33.9573 23.4645 33.9966 23.353 34.0354 23.2413C34.0443 23.2161 34.0534 23.1911 34.062 23.1658C34.0992 23.0565 34.1353 22.9469 34.1703 22.8369C34.1793 22.8086 34.1889 22.7805 34.1979 22.7521C34.2314 22.6451 34.2635 22.5374 34.2951 22.4294C34.3045 22.3975 34.3143 22.3659 34.3235 22.334C34.3535 22.2292 34.382 22.1235 34.4102 22.0178C34.4196 21.9824 34.4296 21.9474 34.4389 21.9119C34.4657 21.8088 34.4908 21.7049 34.5157 21.6012C34.525 21.5627 34.5349 21.5245 34.5439 21.486C34.5674 21.3849 34.5892 21.2831 34.611 21.1813C34.62 21.1395 34.6296 21.0981 34.6383 21.0562C34.6588 20.957 34.6775 20.8571 34.6963 20.7573C34.7048 20.7125 34.714 20.6679 34.7221 20.6229C34.7396 20.5255 34.7554 20.4275 34.7714 20.3294C34.7791 20.2816 34.7878 20.234 34.7951 20.1861C34.8099 20.0901 34.8228 19.9936 34.8361 19.8972C34.843 19.8467 34.8507 19.7965 34.8572 19.7459C34.8693 19.6513 34.8796 19.556 34.8902 19.4609C34.8961 19.4082 34.9029 19.3556 34.9084 19.3026C34.918 19.2081 34.9258 19.1131 34.934 19.0183C34.9386 18.9642 34.9441 18.9105 34.9483 18.8563C34.9557 18.7594 34.9612 18.6621 34.967 18.5647C34.9702 18.5122 34.9743 18.4599 34.977 18.4072C34.9823 18.3022 34.9856 18.1967 34.9892 18.0911C34.9907 18.0458 34.9932 18.0007 34.9944 17.9552C34.9982 17.8041 35.0002 17.6525 35.0002 17.5005C35.0002 17.3607 34.9981 17.2212 34.9949 17.0821C34.9938 17.0375 34.992 16.993 34.9907 16.9485" fill="#E8E8EE"/>
<path d="M30.7105 19.1802C30.7105 18.701 30.3209 18.3112 29.8415 18.3112C29.3623 18.3112 28.9727 18.701 28.9727 19.1802C28.9727 19.6592 29.3623 20.0489 29.8415 20.0489C30.3209 20.0489 30.7105 19.6592 30.7105 19.1802ZM40.3104 14.0216H43.7203V12.363H40.3104V11.1372H44.0813V9.38577H38.312V16.597H40.3104V14.0216ZM46.8422 12.9706C46.8422 11.9302 47.5732 11.0443 48.6655 11.0443C49.7675 11.0443 50.5193 11.9507 50.5193 12.9915V13.0121C50.5193 14.0523 49.788 14.9384 48.6859 14.9384C47.594 14.9384 46.8422 14.0318 46.8422 12.9915V12.9706ZM48.6655 16.7412C50.8905 16.7412 52.5595 15.062 52.5595 12.9915V12.9706C52.5595 10.8997 50.9105 9.24146 48.6859 9.24146C46.4608 9.24146 44.7918 10.9209 44.7918 12.9915V13.0121C44.7918 15.0825 46.44 16.7412 48.6655 16.7412V16.7412ZM55.6496 11.1163H56.9581C57.6276 11.1163 58.0398 11.4048 58.0398 11.9714V11.9921C58.0398 12.5176 57.6485 12.8472 56.9686 12.8472H55.6496V11.1163ZM55.6496 14.413H56.5252L57.9776 16.597H60.2856L58.5654 14.0834C59.4615 13.7022 60.0489 12.9706 60.0489 11.8685V11.8477C60.0489 11.1372 59.8323 10.5806 59.41 10.1686C58.9256 9.67416 58.1636 9.38577 57.0611 9.38577H53.6511V16.597H55.6496V14.413ZM64.7977 16.597H66.7963V11.1372H68.9596V9.38577H62.6341V11.1372H64.7977V16.597ZM74.4505 12.0844H71.8853V9.38577H69.8867V16.597H71.8853V13.8566H74.4505V16.5971H76.4489V9.38577H74.4505V12.0844ZM79.7561 14.8971V13.7535H83.2175V12.1774H79.7561V11.0853H83.5777V9.38577H77.7775V16.597H83.6295V14.8971H79.7561ZM42.643 20.8698C42.643 21.477 42.1795 21.8741 41.4181 21.8741H40.403V19.8324H41.4071C42.1795 19.8324 42.643 20.1858 42.643 20.8483V20.8698ZM41.5726 18.0337H38.2618V25.7588H40.403V23.5515H41.4621C43.3827 23.5515 44.7843 22.5917 44.7843 20.7704V20.7484C44.7843 19.0378 43.5259 18.0337 41.5726 18.0337ZM51.5708 23.8825H47.8299V18.0337H45.6884V25.7588H51.5708V23.8825ZM55.3005 22.7127L56.1727 20.5168L57.0335 22.7127H55.3005ZM55.1573 17.9786L51.8686 25.7588H54.1201L54.6718 24.3795H57.6512L58.2144 25.7588H60.5096L57.2214 17.9786H55.1573ZM66.4363 22.1171L63.2575 18.0337H61.2601V25.7588H63.3789V21.5212L66.6785 25.7588H68.5546V18.0337H66.4363V22.1171ZM72.042 22.7127H75.7493V21.0243H72.0421V19.8548H76.136V18.0337H69.9229V25.7588H76.1915V23.9377H72.0421V22.7127H72.042ZM76.8532 19.9095H79.1707V25.7588H81.3122V19.9095H83.6295V18.0337H76.8532V19.9095ZM82.5034 25.0513H82.3834V24.8908H82.5034C82.5694 24.8908 82.6054 24.92 82.6054 24.971C82.6054 25.0184 82.5694 25.0513 82.5034 25.0513ZM82.7954 24.9565C82.7954 24.7997 82.6784 24.7305 82.5144 24.7305H82.1934V25.4012H82.3834V25.2008H82.4634L82.5984 25.4012H82.8165L82.6565 25.1679C82.7404 25.1351 82.7954 25.0621 82.7954 24.9565Z" fill="#E8E8EE"/>
<path d="M83.034 25.0768C83.034 25.3866 82.7892 25.6453 82.4721 25.6453C82.1519 25.6453 81.911 25.3901 81.911 25.0803V25.0768C81.911 24.7669 82.155 24.5082 82.4721 24.5082C82.793 24.5082 83.034 24.7632 83.034 25.073V25.0768ZM82.4721 24.3984C82.0962 24.3984 81.798 24.7085 81.798 25.0768V25.0806C81.798 25.4489 82.0923 25.755 82.4721 25.755C82.848 25.755 83.147 25.4449 83.147 25.0768V25.0729C83.147 24.7047 82.8519 24.3984 82.4721 24.3984ZM50.3985 30.4156H53.0157V29.8972H50.3984V30.4156H50.3985ZM55.1625 29.7858L54.6282 28.924H53.9724V31.1501H54.5803V29.8781L55.1498 30.7431H55.1625L55.7353 29.8717V31.1501H56.3528V28.924H55.6969L55.1625 29.7858ZM57.3639 30.2724H58.4389V29.7858H57.3639V29.4488H58.5509V28.924H56.7496V31.1501H58.5669V30.6254H57.3639V30.2724ZM60.0738 29.7858L59.5395 28.924H58.8837V31.1501H59.4916V29.8781L60.0611 30.7431H60.0738L60.6466 29.8717V31.1501H61.2641V28.924H60.6082L60.0738 29.7858ZM63.0431 30.4505C63.0431 30.581 62.9342 30.6541 62.7455 30.6541H62.2656V30.2438H62.7391C62.9471 30.2438 63.0431 30.3233 63.0431 30.4441V30.4505ZM62.2656 29.4202H62.6687C62.8543 29.4202 62.9502 29.4901 62.9502 29.6109V29.6173C62.9502 29.7476 62.8447 29.8113 62.6559 29.8113H62.2656V29.4202ZM63.219 29.9862C63.4174 29.9003 63.5645 29.7476 63.5645 29.49V29.4837C63.5645 29.3311 63.5102 29.2134 63.4205 29.1243C63.2894 28.9939 63.091 28.924 62.8095 28.924H61.661V31.1501H62.8158C63.3502 31.1501 63.6637 30.918 63.6637 30.5363V30.5301C63.6637 30.2279 63.4909 30.0752 63.219 29.9862ZM64.5629 30.2724H65.6379V29.7858H64.5629V29.4488H65.7498V28.924H63.9486V31.1501H65.7659V30.6254H64.5629V30.2724ZM67.4456 29.7286C67.4456 29.8908 67.324 29.9925 67.1129 29.9925H66.7033V29.4583H67.1096C67.3177 29.4583 67.4456 29.5474 67.4456 29.7222V29.7286ZM68.0695 29.6905V29.684C68.0695 29.4647 68.0023 29.2929 67.8712 29.1657C67.7208 29.013 67.4841 28.924 67.1416 28.924H66.0827V31.1501H66.7033V30.476H66.9753L67.4264 31.1501H68.1431L67.6088 30.3742C67.8871 30.2565 68.0695 30.0307 68.0695 29.6905ZM68.879 30.4156H71.4963V29.8972H68.879V30.4156Z" fill="#E8E8EE"/>
</svg>
