<svg width="56" height="35" viewBox="0 0 56 35" fill="none" xmlns="http://www.w3.org/2000/svg">
<g clip-path="url(#clip0_449:2332)">
<path d="M7.99203 6.10337C7.06344 7.56116 6.18953 8.23297 4.54016 8.23297C2.28922 8.23297 0.628906 6.57759 0.628906 4.11429C0.628906 1.65098 2.35484 0 4.59484 0C6.20047 0 7.43859 0.870499 7.94828 2.06812L6.77906 2.93862C6.31641 1.9331 5.62187 1.37875 4.55109 1.37875C3.20687 1.37875 2.09234 2.42928 2.09234 4.11429C2.09234 5.74112 3.18609 6.84873 4.55109 6.84873C5.55078 6.84873 6.33172 6.30646 6.86328 5.2691L7.99203 6.10337ZM12.2861 4.85965H11.0622V8.06941H9.62062V0.158073H12.8866C14.5687 0.158073 15.6067 1.02857 15.6067 2.39634C15.6067 3.61702 14.8969 4.34042 13.8567 4.72463L15.703 8.06941H14.0558L12.2861 4.85965ZM11.0622 3.54896H12.8866C13.7714 3.54896 14.1641 3.1417 14.1641 2.50941C14.1641 1.87712 13.7714 1.46876 12.8866 1.46876H11.0622V3.54896ZM17.2233 0.158073H22.5039V1.49181H18.6659V3.31185H22.1944V4.64559H18.6659V6.73128H22.5323V8.06941H17.2233V0.158073ZM26.6186 0.158073H27.9945L31.0866 8.06941H29.5466L28.7809 6.00129H25.8278L25.0622 8.06941H23.5266L26.6186 0.158073ZM26.3233 4.66755H28.292L27.5931 2.76847C27.5931 2.76847 27.4509 2.38427 27.3087 1.91005C27.1666 2.38427 27.0244 2.76847 27.0244 2.76847L26.3233 4.66755ZM30.7584 0.158073H36.8769V1.53682H34.5352V8.06941H33.0969V1.53682H30.7584V0.158073ZM38.395 0.158073H39.8366V8.06941H38.395V0.158073ZM41.2027 0.158073H42.7645L44.4905 5.20763C44.4905 5.20763 44.6545 5.79601 44.7748 6.21425C44.8952 5.79601 45.0592 5.20763 45.0592 5.20763L46.7852 0.158073H48.347L45.5033 8.06941H44.0431L41.2027 0.158073ZM49.4397 0.158073H54.7159V1.49181H50.8812V3.31185H54.4097V4.64559H50.8812V6.73128H54.7487V8.06941H49.4397V0.158073ZM0.783125 13.6228H2.205V20.0511H5.97406V21.4057H0.783125V13.6228ZM7.11266 13.6228H8.53453V21.4057H7.11266V13.6228ZM9.55281 13.6228H11.0841L12.7827 18.5944C12.7827 18.5944 12.9434 19.1729 13.0616 19.5824C13.1797 19.1707 13.3416 18.5944 13.3416 18.5944L15.0445 13.6228H16.5823L13.7878 21.4057H12.3473L9.55281 13.6228ZM17.3337 13.6228H22.5258V14.9401H18.7523V16.7305H22.225V18.0478H18.7523V20.1049H22.5575V21.4222H17.3337V13.6228ZM26.5661 16.7821C28.2067 17.1378 29.0281 17.8601 29.0281 19.1729C29.0281 20.4408 27.9748 21.5638 26.2227 21.5638C24.3523 21.5638 23.3417 20.4968 23.0628 19.073L24.3097 18.4144C24.5131 19.5714 25.0753 20.2718 26.2117 20.2718C27.0605 20.2718 27.6095 19.8491 27.6095 19.2267C27.6095 18.5033 26.9642 18.1916 25.7502 17.9358C24.3852 17.6581 23.3964 16.9237 23.3964 15.6009C23.3964 14.31 24.4716 13.4647 26.0411 13.4647C27.4487 13.4647 28.4266 14.1322 28.9002 15.467L27.7812 16.1366C27.4903 15.2464 26.8887 14.7579 26.0072 14.7579C25.3411 14.7579 24.7494 15.0136 24.7494 15.5691C24.7494 16.1696 25.3083 16.5142 26.5661 16.7821ZM0.718594 27.2434H4.05672C5.71594 27.2434 6.80859 28.1216 6.80859 29.7199C6.80859 31.3182 5.71484 32.1975 4.05672 32.1975H2.10437V34.8485H0.718594V27.2434ZM2.10437 30.9154H4.01953C4.98531 30.9154 5.42609 30.4378 5.42609 29.7199C5.42609 29.002 4.98859 28.5256 4.01953 28.5256H2.10437V30.9154ZM10.1675 31.7628H8.99172V34.8485H7.60594V27.2434H10.7461C12.3627 27.2434 13.3602 28.0799 13.3602 29.3939C13.3602 30.5674 12.6777 31.26 11.6802 31.6322L13.4542 34.8485H11.8694L10.1675 31.7628ZM8.99172 30.5026H10.7417C11.5916 30.5026 11.97 30.1118 11.97 29.5026C11.97 28.8933 11.5916 28.5036 10.7417 28.5036H8.99172V30.5026ZM17.7483 35.0033C15.5859 35.0033 13.9683 33.3194 13.9683 31.0515C13.9683 28.7836 15.5859 27.0996 17.7483 27.0996C19.9106 27.0996 21.5283 28.7836 21.5283 31.0515C21.5283 33.3194 19.9117 35 17.7483 35V35.0033ZM20.1217 31.0515C20.1217 29.4104 19.0827 28.4224 17.7483 28.4224C16.4139 28.4224 15.3759 29.4104 15.3759 31.0515C15.3759 32.6926 16.415 33.6805 17.7483 33.6805C19.0816 33.6805 20.1217 32.686 20.1217 31.046V31.0515ZM28.0591 33.8101C27.6292 34.5049 26.915 35.0044 25.8234 35.0044C23.7748 35.0044 22.1791 33.3644 22.1791 31.0526C22.1791 28.7408 23.8908 27.1007 25.9908 27.1007C27.4509 27.1007 28.6475 27.8395 29.2042 28.9592L28.1641 29.7408C27.7123 28.8395 26.9248 28.3609 25.97 28.3609C24.6783 28.3609 23.5867 29.3928 23.5867 31.0559C23.5867 32.6091 24.5623 33.6849 25.865 33.6849C27.1348 33.6849 27.7441 32.8913 27.8808 31.9681H25.5084V30.7847H29.2666V34.8463H28.3533L28.0591 33.8101ZM32.9733 31.7672H31.8008V34.8529H30.4106V27.2434H33.5508C35.1673 27.2434 36.1648 28.0799 36.1648 29.3939C36.1648 30.5674 35.4823 31.26 34.4848 31.6322L36.2589 34.8485H34.6741L32.9733 31.7672ZM31.8008 30.5026H33.5508C34.4006 30.5026 34.7791 30.1118 34.7791 29.5026C34.7791 28.8933 34.4006 28.5036 33.5508 28.5036H31.8008V30.5026ZM37.3023 27.2434H42.3741V28.5256H38.6881V30.2743H42.0787V31.5564H38.6881V33.5664H42.4069V34.8485H37.2991L37.3023 27.2434ZM46.5314 30.3292C48.1381 30.676 48.9377 31.3819 48.9377 32.664C48.9377 33.9034 47.9095 35 46.1978 35C44.3712 35 43.3836 33.9572 43.1102 32.5663L44.3286 31.9253C44.5277 33.0559 45.0745 33.7398 46.188 33.7398C47.0181 33.7398 47.553 33.3271 47.553 32.7189C47.553 32.0131 46.923 31.709 45.7362 31.4587C44.403 31.1865 43.4394 30.4708 43.4394 29.1765C43.4394 27.9164 44.4894 27.0909 46.0228 27.0909C47.3977 27.0909 48.3536 27.7429 48.8152 29.047L47.7214 29.6991C47.4381 28.8297 46.8464 28.3511 45.9889 28.3511C45.3327 28.3511 44.7606 28.6013 44.7606 29.1447C44.7541 29.7309 45.2998 30.0679 46.5281 30.3292H46.5314ZM52.9156 30.3292C54.5212 30.676 55.3219 31.3819 55.3219 32.664C55.3219 33.9034 54.2927 35 52.5809 35C50.7544 35 49.7667 33.9572 49.4944 32.5663L50.7128 31.9253C50.9119 33.0559 51.4577 33.7398 52.5722 33.7398C53.4012 33.7398 53.9372 33.3271 53.9372 32.7189C53.9372 32.0131 53.3072 31.709 52.1205 31.4587C50.7872 31.1865 49.8236 30.4708 49.8236 29.1765C49.8236 27.9164 50.8736 27.0909 52.4059 27.0909C53.7819 27.0909 54.7367 27.7429 55.1994 29.047L54.1056 29.6991C53.8223 28.8297 53.2306 28.3511 52.3731 28.3511C51.7223 28.3511 51.1448 28.6013 51.1448 29.1447C51.1372 29.7309 51.683 30.0679 52.9102 30.3292H52.9156ZM45.6969 13.6437H47.1187V21.4288H45.6969V13.6437ZM48.5767 13.6437H50.0172L53.1562 18.5922C53.1562 18.5922 53.4144 19.0313 53.4789 19.2037V13.6437H54.8537V21.4288H53.4155L50.2764 16.4462C50.2764 16.4462 50.0183 16.0005 49.9537 15.8347V21.4332H48.5778L48.5767 13.6437ZM0.771094 11.5481H54.8483V10.1606H0.771094V11.5481ZM30.182 18.0357H44.3472V16.6482H30.182V18.0357ZM0.738281 24.9635H54.8483V23.5748H0.738281V24.9635Z" fill="#E8E8EE"/>
</g>
<defs>
<clipPath id="clip0_449:2332">
<rect width="54.6875" height="35" fill="white" transform="translate(0.628906)"/>
</clipPath>
</defs>
</svg>
