<svg width="59" height="35" viewBox="0 0 59 35" fill="none" xmlns="http://www.w3.org/2000/svg">
<path fill-rule="evenodd" clip-rule="evenodd" d="M58.6497 0H0.316406V35H58.6497V0ZM40.0649 23.8506H41.7746V26.4185H44.5082V23.8506H46.218V31.5706H44.5082V27.6293H41.7746V31.5624H40.0649V23.8506ZM50.9898 23.7288C48.855 23.7288 47.6573 25.2159 47.6573 27.5968C47.6573 30.1242 48.8453 31.6763 50.9801 31.6763C51.6177 31.6763 52.1682 31.5463 52.6222 31.2944L53.4046 31.9526L54.4962 31.1237L53.6171 30.3761C54.0807 29.6935 54.3319 28.7427 54.3319 27.5968C54.3319 25.2159 53.1341 23.7288 50.9898 23.7288ZM50.7772 29.7097L51.4824 30.3029C51.3375 30.3679 51.1636 30.3842 50.9898 30.3923C49.9079 30.3923 49.4249 29.3684 49.4249 27.605C49.4249 26.1748 49.8596 25.0371 50.9898 25.0371C52.1296 25.0371 52.5546 26.1585 52.5546 27.605C52.5546 28.2795 52.4869 28.8402 52.3324 29.2791L51.8687 28.8809L50.7772 29.7097ZM9.80199 21.5103L9.79233 23.2981L6.01549 22.5829L6.00583 24.4195L9.34801 25.0452V26.8248L6.00583 26.1991L5.98651 32.0501L3.89042 31.6519L3.9194 20.4051L9.80199 21.5103ZM19.3552 25.8824L19.3262 18.6337L17.2881 18.268L17.3171 25.5329C17.3268 26.695 16.7375 27.2557 15.8295 27.0932C14.9216 26.9306 14.3226 26.1505 14.313 24.9885L14.284 17.7235L12.2458 17.3579L12.2749 24.5903C12.2845 26.955 13.8203 28.4665 15.8391 28.8322C17.8773 29.1978 19.3648 28.1983 19.3552 25.8824ZM34.617 12.6202L34.646 19.0806C34.6556 21.1447 33.3227 22.0385 31.5163 21.7054C29.7197 21.3804 28.348 20.0313 28.3383 17.9267L28.3094 11.4825L30.1253 11.8075L30.1544 18.2761C30.1544 19.3081 30.6952 20.007 31.5067 20.1533C32.3181 20.2996 32.8397 19.7957 32.83 18.7636L32.8011 12.2951L34.617 12.6202ZM42.6633 18.1867L40.7411 13.3028C40.9826 13.2297 41.2047 13.124 41.4173 12.9453C41.9292 12.5145 42.0064 11.8644 42.0064 11.5312C41.9967 10.1173 40.6638 9.07714 39.4371 8.85772L36.6938 8.36202L36.7324 17.114L38.3842 17.4147L38.3649 13.1403L39.1279 13.2785L40.8666 17.8617L42.6633 18.1867ZM40.2871 11.2144C40.2871 11.7507 39.9684 12.0188 39.4468 11.962L38.3745 11.7669L38.3649 10.0442L39.2825 10.2067C39.8524 10.3123 40.2871 10.7349 40.2871 11.2144ZM47.8987 6.66358V7.97192L45.0685 7.45996L45.0781 8.8902L47.7055 9.36152L47.7152 10.6699L45.0878 10.1985L45.0975 13.0996L47.976 13.6197L47.9856 14.928L43.5423 14.1317L43.5037 5.86721L47.8987 6.66358ZM54.1678 5.68019C54.1678 4.51 53.308 3.42107 51.9075 3.16916C50.5744 2.92537 49.6858 3.54297 49.6953 4.79442C49.6953 5.64768 50.188 6.47656 51.0091 7.05354L51.7529 7.57362C52.342 7.97994 52.8154 8.54878 52.8154 9.15825C52.8154 9.82464 52.4483 10.1741 51.9075 10.0765C51.2313 9.95462 50.8932 9.2964 50.8449 8.20748C50.8449 8.19005 50.8421 8.16564 50.8395 8.14296C50.8373 8.12333 50.8352 8.10502 50.8352 8.0937L49.396 7.97181C49.4732 9.93024 50.4102 10.9867 51.9364 11.2629C53.3756 11.523 54.3127 10.7266 54.303 9.32077C54.2933 8.35374 53.7523 7.39484 52.7188 6.67973L51.8978 6.11901C51.4051 5.76958 51.1347 5.45265 51.1347 5.01384C51.1347 4.43687 51.492 4.25808 51.9461 4.33935C52.429 4.42873 52.8541 4.85131 52.8541 5.58268V5.70457L54.1581 5.81021C54.1581 5.80096 54.1595 5.78935 54.1612 5.77496C54.164 5.75145 54.1678 5.72051 54.1678 5.68019ZM26.4644 15.757V17.3579L24.1075 16.9353L24.1462 25.4517L22.2432 25.1023L22.2046 16.5859L19.838 16.1633V14.5543L26.4644 15.757ZM5.46491 3.12054H3.79382V10.4017H5.39729V5.78597L8.10192 10.4017H9.78267V3.12054H8.16954V7.76067L5.46491 3.12054ZM17.5103 3.12054H19.1234L19.983 8.17511H20.0218L21.1133 4.72143H22.1468L23.2673 8.17511H23.2962L24.2332 3.12054H25.8174L24.3781 10.4017H22.6685L21.6059 7.12681L20.5626 10.4017H18.8529L17.5103 3.12054ZM16.0227 3.12054H11.502V10.4017H16.0805V9.24778H13.1055V6.688H15.8198V5.53406H13.1055V4.27448H16.0227V3.12054Z" fill="#E8E8EE"/>
</svg>
